<svg xmlns="http://www.w3.org/2000/svg" viewBox="0 0 320 180">
  <defs>
    <linearGradient id="bg" x1="0" y1="0" x2="0" y2="1">
      <stop offset="0" stop-color="#10233A"/>
      <stop offset="1" stop-color="#0B1A2C"/>
    </linearGradient>
  </defs>
  <rect width="320" height="180" fill="url(#bg)"/>
  <g opacity="0.9">
    <ellipse cx="160" cy="30" rx="34" ry="12" fill="#94A3B8" opacity="0.35"/>
    <ellipse cx="196" cy="18" rx="26" ry="9" fill="#94A3B8" opacity="0.25"/>
    <ellipse cx="128" cy="14" rx="20" ry="7" fill="#94A3B8" opacity="0.2"/>
  </g>
  <g>
    <rect x="128" y="66" width="64" height="86" rx="16" fill="#0F6B3A"/>
    <rect x="128" y="66" width="64" height="86" rx="16" fill="none" stroke="#08341E" stroke-width="3"/>
    <rect x="128" y="92" width="64" height="14" fill="#F7C55C"/>
    <text x="160" y="103" font-family="Inter, sans-serif" font-size="11" font-weight="800" fill="#07341E" text-anchor="middle">GAS</text>
    <rect x="148" y="50" width="24" height="18" rx="3" fill="#475569"/>
    <rect x="156" y="38" width="8" height="14" fill="#94A3B8"/>
    <circle cx="160" cy="32" r="10" fill="none" stroke="#F7C55C" stroke-width="4"/>
    <path d="M160 22 v-8 M152 16 l16 0" stroke="#F7C55C" stroke-width="4" stroke-linecap="round"/>
  </g>
  <g fill="#CBD5E1" opacity="0.75">
    <circle cx="150" cy="128" r="4"/>
    <circle cx="170" cy="136" r="3"/>
    <circle cx="160" cy="118" r="2.5"/>
  </g>
  <path d="M60 150 q20 -18 44 -10 M216 150 q20 -18 44 -10" stroke="#334155" stroke-width="5" fill="none" stroke-linecap="round"/>
  <rect x="0" y="158" width="320" height="22" fill="#060F1A"/>
  <text x="16" y="173" font-family="Inter, sans-serif" font-size="12" font-weight="700" fill="#F7C55C">GAS &amp; CONFINED SPACE</text>
</svg>
